<?xml version="1.0" encoding="UTF-8"?>
<svg width="24px" height="24px" viewBox="0 0 24 24" version="1.1" xmlns="http://www.w3.org/2000/svg">
    <g stroke="none" stroke-width="1" fill="none" fill-rule="evenodd">
        <path d="M12,2 C13.66,2 15,3.34 15,5 L15,11 C15,12.66 13.66,14 12,14 C10.34,14 9,12.66 9,11 L9,5 C9,3.34 10.34,2 12,2 Z" fill="#FFFFFF"/>
        <path d="M19,11 L17,11 C17,14.53 14.53,17 11,17 L11,19 C13.95,19 16.35,17.02 16.89,14.34 C17.31,14.44 17.64,14.8 17.64,15.25 L17.64,16.71 C17.64,17.13 17.31,17.47 16.89,17.47 L15.12,17.47 C14.7,17.47 14.36,17.81 14.36,18.23 C14.36,18.65 14.7,18.99 15.12,18.99 L16.89,18.99 C18.15,18.99 19.17,17.97 19.17,16.71 L19.17,15.25 C19.17,14.51 18.81,13.83 18.21,13.42 C18.45,12.71 18.64,11.93 18.64,11.12 L19,11 Z" fill="#FFFFFF"/>
        <path d="M7,11 L5,11 C5,14.53 7.47,17 11,17 L11,19 C8.05,19 5.65,17.02 5.11,14.34 C4.69,14.44 4.36,14.8 4.36,15.25 L4.36,16.71 C4.36,17.13 4.69,17.47 5.11,17.47 L6.88,17.47 C7.3,17.47 7.64,17.81 7.64,18.23 C7.64,18.65 7.3,18.99 6.88,18.99 L5.11,18.99 C3.85,18.99 2.83,17.97 2.83,16.71 L2.83,15.25 C2.83,14.51 3.19,13.83 3.79,13.42 C3.55,12.71 3.36,11.93 3.36,11.12 L3,11 L7,11 Z" fill="#FFFFFF"/>
    </g>
</svg> 